<svg width="81" height="72" viewBox="0 0 81 72" fill="none" xmlns="http://www.w3.org/2000/svg">
<path fill-rule="evenodd" clip-rule="evenodd" d="M24.7342 4.80374C23.2232 6.81592 20.8535 8 18.337 8H8.33698C3.9187 8 0.336975 11.5817 0.336975 16V64C0.336975 68.4183 3.9187 72 8.33698 72H72.337C76.7553 72 80.337 68.4183 80.337 64V16C80.337 11.5817 76.7552 8 72.337 8H62.337C59.8209 8 57.4516 6.81632 55.9406 4.80478L55.937 4.8L55.337 4L54.737 3.2C53.2261 1.18555 50.855 0 48.337 0H32.337C29.8189 0 27.4478 1.18555 25.937 3.2L25.337 4L24.737 4.8L24.7342 4.80374ZM57.837 40C57.837 49.665 50.002 57.5 40.337 57.5C30.672 57.5 22.837 49.665 22.837 40C22.837 30.335 30.672 22.5 40.337 22.5C50.002 22.5 57.837 30.335 57.837 40ZM40.337 49.5C45.5837 49.5 49.837 45.2467 49.837 40C49.837 34.7533 45.5837 30.5 40.337 30.5C35.0903 30.5 30.837 34.7533 30.837 40C30.837 45.2467 35.0903 49.5 40.337 49.5Z" fill="#FDFDFD"/>
</svg>
