<svg width="72" height="72" viewBox="0 0 72 72" fill="none" xmlns="http://www.w3.org/2000/svg">
<path fill-rule="evenodd" clip-rule="evenodd" d="M35.9999 31.7574L20.09 15.8475C19.6146 15.3721 19.0194 15.0896 18.4016 15L17.5357 15C16.9179 15.0896 16.3227 15.3721 15.8474 15.8475C15.3722 16.3227 15.0897 16.9176 15 17.5352L15 18.4024C15.0897 19.0199 15.3722 19.6149 15.8474 20.0901L31.7573 36L15.8474 51.9099C15.3722 52.3851 15.0897 52.9801 15 53.5976L15 54.4648C15.0897 55.0824 15.3722 55.6773 15.8474 56.1525C16.3227 56.6279 16.9179 56.9104 17.5357 57H18.4016C19.0194 56.9104 19.6146 56.6279 20.09 56.1525L35.9999 40.2426L51.9098 56.1525C52.3852 56.6279 52.9804 56.9104 53.5982 57H54.4641C55.0819 56.9104 55.6771 56.6279 56.1525 56.1525C56.628 55.677 56.9105 55.0816 57 54.4636V53.5989C56.9105 52.9809 56.628 52.3854 56.1525 51.9099L40.2425 36L56.1525 20.0901C56.628 19.6146 56.9105 19.0191 57 18.4011V17.5364C56.9105 16.9184 56.628 16.323 56.1525 15.8475C55.6771 15.3721 55.0819 15.0896 54.4641 15L53.5982 15C52.9804 15.0896 52.3852 15.3721 51.9098 15.8475L35.9999 31.7574Z" fill="#EE2128"/>
</svg>
