<svg width="97" height="96" viewBox="0 0 97 96" fill="none" xmlns="http://www.w3.org/2000/svg">
<path d="M71.5182 41.6668L40.09 87.3806C39.9588 87.5716 39.783 87.7278 39.5778 87.8357C39.3727 87.9436 39.1444 88 38.9126 88C38.7315 88.0003 38.5521 87.9658 38.3841 87.8981C38.0832 87.7786 37.8319 87.5604 37.6714 87.2793C37.511 86.9982 37.4508 86.6708 37.5009 86.351L42.1554 56.5718H27.4842C27.2239 56.5718 26.9685 56.5007 26.7457 56.3662C26.5229 56.2316 26.3411 56.0388 26.2199 55.8084C26.0987 55.5781 26.0427 55.319 26.058 55.0592C26.0733 54.7993 26.1593 54.5486 26.3068 54.3341L57.735 8.62035C57.9183 8.35319 58.1869 8.15627 58.4969 8.06192C58.8069 7.96756 59.1397 7.98138 59.4408 8.10109C59.7418 8.22081 59.9933 8.43931 60.1538 8.72074C60.3143 9.00218 60.3744 9.32983 60.3242 9.64991L55.6703 39.4291H70.3408C70.6011 39.4291 70.8565 39.5002 71.0793 39.6347C71.3021 39.7693 71.4839 39.9621 71.6052 40.1925C71.7264 40.4228 71.7823 40.6819 71.767 40.9418C71.7517 41.2016 71.6657 41.4523 71.5182 41.6668Z" fill="#FDFDFD"/>
</svg>
