<svg width="97" height="97" viewBox="0 0 97 97" fill="none" xmlns="http://www.w3.org/2000/svg">
<path fill-rule="evenodd" clip-rule="evenodd" d="M66.4742 51.8226L73.6549 41.3779C73.8023 41.1634 73.8884 40.9127 73.9037 40.6529C73.919 40.393 73.863 40.134 73.7418 39.9036C73.6206 39.6733 73.4388 39.4804 73.216 39.3459C72.9931 39.2113 72.7378 39.1402 72.4775 39.1403H57.807L62.4609 9.36103C62.5111 9.04095 62.451 8.7133 62.2905 8.43187C62.1299 8.15043 61.8785 7.93193 61.5774 7.81221C61.2764 7.6925 60.9435 7.67868 60.6336 7.77304C60.3236 7.86739 60.055 8.06431 59.8717 8.33147L44.843 30.1914L66.4742 51.8226ZM17.0904 13.7524C17.0963 13.7584 17.1022 13.7643 17.1081 13.7702L84.9903 81.6525C84.9961 81.6583 85.002 81.6641 85.0078 81.6698C86.5524 83.2333 86.5466 85.7528 84.9903 87.3091C83.4282 88.8712 80.8955 88.8712 79.3335 87.3091L57.2557 65.2313L42.2267 87.0917C42.0954 87.2827 41.9196 87.4389 41.7145 87.5468C41.5094 87.6547 41.2811 87.7111 41.0493 87.7111C40.8682 87.7115 40.6887 87.6769 40.5207 87.6093C40.2199 87.4898 39.9686 87.2715 39.8081 86.9904C39.6477 86.7093 39.5875 86.3819 39.6376 86.0621L44.2921 56.2829H29.6209C29.3606 56.2829 29.1052 56.2118 28.8824 56.0773C28.6596 55.9428 28.4777 55.7499 28.3565 55.5196C28.2353 55.2892 28.1794 55.0301 28.1947 54.7703C28.21 54.5104 28.296 54.2597 28.4435 54.0452L35.6245 43.6001L11.4512 19.4268C9.88911 17.8647 9.88911 15.3321 11.4512 13.77C13.0074 12.2138 15.5269 12.2079 17.0904 13.7524Z" fill="#FDFDFD"/>
</svg>
