<svg width="97" height="96" viewBox="0 0 97 96" fill="none" xmlns="http://www.w3.org/2000/svg">
<path d="M65.8041 41.6668L34.3759 87.3806C34.2446 87.5716 34.0688 87.7278 33.8637 87.8357C33.6585 87.9436 33.4302 88 33.1985 88C33.0174 88.0003 32.8379 87.9658 32.6699 87.8981C32.369 87.7786 32.1178 87.5604 31.9573 87.2793C31.7968 86.9982 31.7367 86.6708 31.7868 86.351L36.4413 56.5718H21.77C21.5097 56.5718 21.2544 56.5007 21.0316 56.3662C20.8087 56.2316 20.6269 56.0388 20.5057 55.8084C20.3845 55.5781 20.3285 55.319 20.3438 55.0592C20.3592 54.7993 20.4452 54.5486 20.5926 54.3341L52.0208 8.62035C52.2041 8.35319 52.4728 8.15627 52.7827 8.06192C53.0927 7.96756 53.4255 7.98138 53.7266 8.10109C54.0277 8.22081 54.2791 8.43931 54.4396 8.72074C54.6002 9.00218 54.6603 9.32983 54.6101 9.64991L49.9561 39.4291H64.6267C64.8869 39.4291 65.1423 39.5002 65.3651 39.6347C65.5879 39.7693 65.7698 39.9621 65.891 40.1925C66.0122 40.4228 66.0682 40.6819 66.0528 40.9418C66.0375 41.2016 65.9515 41.4523 65.8041 41.6668ZM77.4836 75.143C77.4836 77.6859 76.7296 80.1716 75.3169 82.286C73.9041 84.4003 71.8961 86.0482 69.5468 87.0213C67.1975 87.9944 64.6124 88.249 62.1184 87.753C59.6244 87.2569 57.3335 86.0324 55.5354 84.2343C53.7373 82.4362 52.5128 80.1453 52.0167 77.6513C51.5206 75.1573 51.7752 72.5722 52.7483 70.2228C53.7215 67.8735 55.3694 65.8655 57.4837 64.4528C59.598 63.0401 62.0838 62.286 64.6267 62.286C68.0354 62.2898 71.3034 63.6456 73.7137 66.0559C76.1241 68.4662 77.4799 71.7343 77.4836 75.143ZM70.2502 80.3549L65.9645 68.9265C65.8622 68.6544 65.6793 68.4199 65.4403 68.2544C65.2012 68.0889 64.9174 68.0002 64.6267 68.0002C64.3359 68.0002 64.0521 68.0889 63.8131 68.2544C63.574 68.4199 63.3911 68.6544 63.2888 68.9265L59.0032 80.3549C58.9372 80.5306 58.9065 80.7176 58.9128 80.9051C58.9191 81.0927 58.9622 81.2772 59.0398 81.4481C59.1174 81.6189 59.2279 81.7728 59.365 81.901C59.502 82.0292 59.663 82.1291 59.8387 82.1951C60.0144 82.261 60.2014 82.2917 60.3889 82.2854C60.5765 82.2791 60.761 82.236 60.9318 82.1584C61.1027 82.0808 61.2566 81.9703 61.3848 81.8332C61.513 81.6962 61.6129 81.5352 61.6788 81.3595L62.4027 79.4287H66.8506L67.5745 81.3595C67.7077 81.7143 67.9764 82.0017 68.3215 82.1584C68.6666 82.3151 69.0598 82.3283 69.4146 82.1951C69.7694 82.0618 70.0568 81.7931 70.2135 81.4481C70.3702 81.103 70.3834 80.7098 70.2502 80.3549ZM63.474 76.5716H65.7794L64.6267 73.4969L63.474 76.5716Z" fill="#FDFDFD"/>
</svg>
